<svg width="94" height="96" viewBox="0 0 94 96" fill="none" xmlns="http://www.w3.org/2000/svg">
<path d="M93.5607 85.5607C94.1464 84.9749 94.1464 84.0251 93.5607 83.4393L84.0147 73.8934C83.4289 73.3076 82.4792 73.3076 81.8934 73.8934C81.3076 74.4792 81.3076 75.4289 81.8934 76.0147L90.3787 84.5L81.8934 92.9853C81.3076 93.5711 81.3076 94.5208 81.8934 95.1066C82.4792 95.6924 83.4289 95.6924 84.0147 95.1066L93.5607 85.5607ZM0.500664 0.544623C0.924934 14.8001 6.0271 36.1269 19.9821 53.9255C33.9887 71.7901 56.8416 86 92.5 86V83C57.7584 83 35.7779 69.2099 22.3429 52.0745C8.85623 34.8731 3.9084 14.1999 3.49934 0.455377L0.500664 0.544623Z" fill="white"/>
</svg>
